<svg xmlns="http://www.w3.org/2000/svg" width="148" height="24" viewBox="0 0 148 24" fill="none"><g clip-path="url(#clip0_56_712)"><path d="M9.35263 7.26455C9.35263 4.10853 7.82451 1.38803 6.65911 0.499093C6.65911 0.499093 6.56992 0.445399 6.58181 0.576651C6.47478 6.70374 3.37694 8.33246 1.67045 10.5578C-0.927934 13.7675 -0.440366 18.4747 2.75261 21.0758C3.45424 21.6486 4.25694 22.0901 5.1191 22.3705C7.20613 22.9551 4.63154 21.3443 4.30451 17.9377C3.90613 13.7973 9.35263 10.6771 9.35263 7.26455Z" fill="#161617"></path><path d="M11.3943 9.36511C11.3765 9.34125 11.3468 9.33528 11.323 9.34721C11.317 9.35318 11.3111 9.35914 11.3051 9.36511C10.9127 10.785 10.2468 12.1214 9.34295 13.2848C5.75754 18.3976 7.8089 20.8616 8.95647 22.1502C9.61647 22.9199 8.95647 22.1502 10.6273 21.3627C12.637 20.2352 13.9749 18.2007 14.2127 15.9038C14.397 13.3921 13.3446 10.952 11.3943 9.36511Z" fill="#161617"></path><path d="M73.5203 8.91579C74.4332 8.91579 75.1732 8.17323 75.1732 7.25724C75.1732 6.34125 74.4332 5.59869 73.5203 5.59869C72.6075 5.59869 71.8674 6.34125 71.8674 7.25724C71.8674 8.17323 72.6075 8.91579 73.5203 8.91579Z" fill="#161617"></path><path d="M27.8561 5.61877V12.0263H21.5176V6.45401C21.5176 5.99463 21.143 5.61877 20.6852 5.61877H18.5328V20.9335C18.5268 21.3929 18.8955 21.7688 19.3533 21.7747H21.5593V14.6215H27.8917V20.9395C27.8917 21.3989 28.2663 21.7747 28.7242 21.7747H30.8647V6.45401C30.8647 5.99463 30.4901 5.61877 30.0323 5.61877H27.8561ZM40.4259 9.62196V17.3002C40.4318 17.9982 40.0691 18.6485 39.4745 19.0125C38.4458 19.6806 37.0723 19.3823 36.4123 18.3502C36.1864 17.9982 36.0615 17.5866 36.0615 17.169V10.4572C36.0615 9.99782 35.6869 9.62196 35.2291 9.62196H33.0885V17.4315C33.1004 19.9491 35.128 21.9835 37.6372 21.9955H38.8502C41.3594 21.9835 43.387 19.9491 43.3988 17.4315V10.4572C43.3988 9.99782 43.0242 9.62196 42.5664 9.62196H40.4259Z" fill="#161617"></path><path d="M72.8678 21.7725H75.0085V10.8964C75.0085 10.4371 74.6338 10.0612 74.176 10.0612H72.0472V20.9253C72.0413 21.3907 72.4099 21.7665 72.8678 21.7725Z" fill="#161617"></path><path d="M51.0704 9.61373C48.0855 9.47651 45.5585 11.7913 45.4217 14.7803C45.4217 14.828 45.4158 14.8817 45.4158 14.9295V16.6119C45.4633 19.6008 47.925 21.9872 50.9039 21.9335C50.9574 21.9335 51.0169 21.9335 51.0704 21.9276C54.0493 22.0708 56.5764 19.7619 56.7191 16.7789C56.7191 16.7252 56.725 16.6656 56.725 16.6119V14.9295C56.6715 11.9345 54.2039 9.55407 51.219 9.60776C51.1655 9.60776 51.118 9.61373 51.0704 9.61373ZM53.7163 16.8565C53.7163 18.342 52.5153 19.5412 51.0407 19.5412C49.5661 19.5412 48.365 18.336 48.365 16.8565V14.7564C48.365 13.2709 49.5661 12.0717 51.0407 12.0717C52.5153 12.0717 53.7163 13.2769 53.7163 14.7564V16.8565Z" fill="#161617"></path><path d="M64.3858 9.61403C63.4701 9.61403 62.5604 9.82284 61.7339 10.2285V6.46994C61.7339 6.01056 61.3593 5.6347 60.9014 5.6347H58.7312V16.6599C58.7787 19.6488 61.2404 22.0353 64.2193 21.9816C64.2728 21.9816 64.3323 21.9816 64.3858 21.9756C67.3647 22.1188 69.8917 19.8099 70.0344 16.8269C70.0344 16.7732 70.0404 16.7136 70.0404 16.6599V14.9775C70.0107 11.9825 67.5669 9.57823 64.576 9.60806C64.5106 9.60806 64.4512 9.60806 64.3858 9.61403ZM67.0377 16.8568C67.0377 18.3423 65.8366 19.5415 64.362 19.5415C62.8814 19.5415 61.6863 18.3363 61.6863 16.8568V14.7567C61.6863 13.2712 62.8874 12.072 64.362 12.072C65.8425 12.072 67.0377 13.2771 67.0377 14.7567V16.8568Z" fill="#161617"></path><path d="M122.063 9.46508C121.148 9.46508 120.238 9.67389 119.411 10.0796V6.32099C119.411 5.86161 119.037 5.48575 118.579 5.48575H116.438V16.5109C116.486 19.4999 118.948 21.8863 121.926 21.8326C121.98 21.8326 122.039 21.8326 122.093 21.8266C125.072 21.9698 127.599 19.661 127.742 16.678C127.742 16.6243 127.748 16.5646 127.748 16.5109V14.8285C127.718 11.8336 125.274 9.42928 122.289 9.45911C122.218 9.45911 122.14 9.45911 122.063 9.46508ZM124.715 16.7018C124.715 18.1874 123.514 19.3865 122.039 19.3865C120.559 19.3865 119.364 18.1814 119.364 16.7018V14.6018C119.364 13.1163 120.565 11.9171 122.039 11.9171C123.52 11.9171 124.715 13.1222 124.715 14.6018V16.7018ZM94.1943 12.0842H88.391V13.6711C88.391 14.1603 88.7894 14.56 89.277 14.56H92.0359V15.9621C92.0776 16.7973 91.7862 17.6146 91.2213 18.2291C89.824 19.5476 87.6597 19.6133 86.1851 18.3783C85.4002 17.6087 85.2337 16.7675 85.2337 13.6532C85.2337 10.539 85.4002 9.71565 86.1851 8.94603C86.9283 8.31364 87.8619 7.96164 88.837 7.94374C92.0062 7.94374 93.0705 9.07132 93.8614 10.0975H93.9684V7.84829C93.9684 7.50226 93.8138 7.17413 93.5462 6.95935C92.2203 5.8974 90.8943 5.50365 88.617 5.50365C86.8748 5.44995 85.1862 6.07042 83.8899 7.23975C82.124 8.81478 82.124 10.6105 82.124 13.5578V13.7904C82.124 16.7436 82.124 18.5334 83.8899 20.1084C86.6548 22.4829 90.7516 22.4352 93.457 19.9951C94.5868 18.9033 95.0446 16.8152 95.0446 14.6794V12.9075C95.0089 12.46 94.6462 12.1021 94.1943 12.0842ZM102.768 21.773V19.8937C102.768 19.4462 102.406 19.0882 101.966 19.0882H100.473C99.2544 19.0882 99.3138 18.4737 99.3138 16.8928V6.25536C99.3138 5.80791 98.9511 5.44995 98.5111 5.44995H96.323V17.2626C96.323 20.1144 97.0544 21.7849 100.122 21.7849H102.774L102.768 21.773ZM147.381 21.8445V19.9593C147.399 19.5118 147.06 19.136 146.614 19.1181C146.608 19.1181 146.608 19.1181 146.602 19.1181H145.11C143.891 19.1181 143.95 18.5036 143.95 16.9226V6.35082C143.95 5.90337 143.588 5.54541 143.148 5.54541H140.96V17.3402C140.96 20.192 141.691 21.8624 144.759 21.8624H147.411L147.381 21.8445ZM109.499 9.44718C106.514 9.30996 103.987 11.6248 103.851 14.6137C103.851 14.6615 103.845 14.7152 103.845 14.7629V16.4572C103.892 19.4462 106.354 21.8326 109.333 21.7789C109.386 21.7789 109.446 21.7789 109.499 21.773C112.478 21.9161 115.005 19.6073 115.148 16.6243C115.148 16.5706 115.154 16.5109 115.154 16.4572V14.7748C115.106 11.7799 112.645 9.39348 109.66 9.44121C109.606 9.44121 109.553 9.44121 109.499 9.44718ZM112.151 16.6839C112.151 18.1695 110.95 19.3686 109.476 19.3686C107.995 19.3686 106.8 18.1635 106.8 16.6839V14.572C106.8 13.0864 108.001 11.8873 109.476 11.8873C110.956 11.8873 112.151 13.0924 112.151 14.572V16.6839ZM138.07 10.533C136.946 9.75741 135.596 9.37559 134.235 9.45911C133.587 9.45911 132.932 9.50684 132.29 9.59036C131.749 9.66195 130.994 9.76934 130.471 9.8827C130.257 9.93639 130.215 10.1034 130.215 10.3003V11.9052C130.215 12.1915 130.215 12.454 130.524 12.3765C131.089 12.2333 132.183 11.9947 132.475 11.941C132.98 11.8634 133.485 11.8216 133.997 11.8276C134.657 11.7799 135.323 11.935 135.894 12.2691C136.345 12.6569 136.571 13.2535 136.494 13.8441V13.9336H134.71C134.021 13.9336 133.331 14.0112 132.659 14.1723C132.035 14.3214 131.434 14.5779 130.893 14.924C130.388 15.2521 129.965 15.6876 129.656 16.2067C129.347 16.7436 129.192 17.3581 129.198 17.9786C129.181 18.5931 129.317 19.2016 129.585 19.7505C129.846 20.2397 130.233 20.6573 130.697 20.9675C131.238 21.3076 131.838 21.5403 132.463 21.6477C133.188 21.7908 133.925 21.8565 134.663 21.8505C135.245 21.8505 139.479 21.7909 139.479 19.7743V13.9396C139.574 12.6569 139.051 11.3921 138.07 10.533ZM136.458 16.2604V19.3686C136.227 19.4104 135.971 19.4462 135.697 19.476C135.031 19.5417 134.365 19.5417 133.7 19.476C133.438 19.4522 133.176 19.3806 132.938 19.2613C132.718 19.1479 132.528 18.9868 132.391 18.784C132.231 18.5155 132.159 18.2053 132.177 17.895C132.142 17.376 132.385 16.8749 132.82 16.5945C133.462 16.2484 134.187 16.0933 134.912 16.141H135.798L136.458 16.2604Z" fill="#161617"></path></g><defs><clipPath id="clip0_56_712"><rect width="148" height="23" fill="white" transform="translate(0 0.329407)"></rect></clipPath></defs></svg>